<?xml version="1.0" encoding="utf-8"?>
<!-- Generator: Adobe Illustrator 18.0.0, SVG Export Plug-In . SVG Version: 6.00 Build 0)  -->
<!DOCTYPE svg PUBLIC "-//W3C//DTD SVG 1.1//EN" "http://www.w3.org/Graphics/SVG/1.1/DTD/svg11.dtd">
<svg version="1.1" id="Layer_1" xmlns="http://www.w3.org/2000/svg" xmlns:xlink="http://www.w3.org/1999/xlink" x="0px" y="0px"
	 viewBox="0 0 400 40" enable-background="new 0 0 400 40" xml:space="preserve">
<path fill="#4D4D4D" d="M1000-1210c-110.5,0-200,89.5-200,200v100v100v0.3h200v-0.3c-36.4,0-70.6-9.7-100-26.8v-1.8V-1010
	c0-30.7,13.9-58.2,35.7-76.6c10.5-4,20.2-9.8,28.7-16.9c11.1-4.2,23.1-6.6,35.7-6.6v-70V-1210c0.5,0,1,0,1.5,0c0.5,0,1,0,1.5,0H1000
	z"/>
<circle fill="#CCCCCC" cx="1800" cy="-410" r="200"/>
<circle fill="#E2E2E2" cx="1800" cy="-410" r="100"/>
<circle fill="#CCCCCC" cx="1400" cy="-410" r="200"/>
<circle fill="#E2E2E2" cx="1400" cy="-410" r="100"/>
<linearGradient id="SVGID_1_" gradientUnits="userSpaceOnUse" x1="1000" y1="-700" x2="1000" y2="-790">
	<stop  offset="0" style="stop-color:#FFFFFF"/>
	<stop  offset="1" style="stop-color:#CCCCCC"/>
</linearGradient>
<polygon fill="url(#SVGID_1_)" points="1000,-700 980,-720 990,-730 1000,-790 1010,-730 1020,-720 "/>
<circle opacity="0.5" cx="1345" cy="-395" r="15"/>
<circle opacity="0.5" cx="1455" cy="-395" r="15"/>
<polygon fill="#FFFFFF" points="1400,-340 1360,-360 1380,-380 1400,-420 1420,-380 1440,-360 "/>
<line fill="none" stroke="#000000" stroke-width="10" stroke-linecap="round" stroke-linejoin="round" stroke-miterlimit="10" x1="1380" y1="-330" x2="1420" y2="-330"/>
<circle opacity="0.5" cx="1750" cy="-410" r="10"/>
<circle opacity="0.5" cx="1850" cy="-410" r="10"/>
<path fill="none" stroke="#000000" stroke-width="10" stroke-linecap="round" stroke-linejoin="round" stroke-miterlimit="10" d="
	M1376.6-458.3c-15.6-15.6-40.9-15.6-56.6,0"/>
<path fill="none" stroke="#000000" stroke-width="10" stroke-linecap="round" stroke-linejoin="round" stroke-miterlimit="10" d="
	M1830-328.3c-15.6-15.6-40.9-15.6-56.6,0"/>
<path fill="none" stroke="#000000" stroke-width="10" stroke-linecap="round" stroke-linejoin="round" stroke-miterlimit="10" d="
	M1480-458.3c-15.6-15.6-40.9-15.6-56.6,0"/>
<path fill="#FFFFFF" d="M1829.1-377.2c-2-10.8-8.3-32-29.1-52.8c-20.8,20.8-27.2,42.1-29.1,52.8c-0.6,2.3-0.9,4.7-0.9,7.2
	c0,16.6,13.4,30,30,30s30-13.4,30-30C1830-372.5,1829.7-374.9,1829.1-377.2z"/>
<path fill="#FFFFFF" d="M1829.1-377.2c-2-10.8-8.3-32-29.1-52.8c-20.8,20.8-27.2,42.1-29.1,52.8c-0.6,2.3-0.9,4.7-0.9,7.2
	c0,16.6,13.4,30,30,30s30-13.4,30-30C1830-372.5,1829.7-374.9,1829.1-377.2z"/>
<line fill="none" stroke="#000000" stroke-width="8" stroke-miterlimit="10" x1="1600" y1="-460" x2="2000" y2="-460"/>
<g>
	<g>
		<path fill="#FFFFFF" d="M1735-434c-11.6,0-21-9.4-21-21s9.4-21,21-21h30c11.6,0,21,9.4,21,21s-9.4,21-21,21H1735z"/>
		<path d="M1765-472c9.4,0,17,7.6,17,17c0,9.4-7.6,17-17,17h-30c-9.4,0-17-7.6-17-17c0-9.4,7.6-17,17-17H1765 M1765-480h-30
			c-13.8,0-25,11.2-25,25v0c0,13.8,11.2,25,25,25h30c13.8,0,25-11.2,25-25v0C1790-468.8,1778.8-480,1765-480L1765-480z"/>
	</g>
	<g>
		<path fill="#FFFFFF" d="M1835-434c-11.6,0-21-9.4-21-21s9.4-21,21-21h30c11.6,0,21,9.4,21,21s-9.4,21-21,21H1835z"/>
		<path d="M1865-472c9.4,0,17,7.6,17,17c0,9.4-7.6,17-17,17h-30c-9.4,0-17-7.6-17-17c0-9.4,7.6-17,17-17H1865 M1865-480h-30
			c-13.8,0-25,11.2-25,25v0c0,13.8,11.2,25,25,25h30c13.8,0,25-11.2,25-25v0C1890-468.8,1878.8-480,1865-480L1865-480z"/>
	</g>
</g>
<circle fill="#CCCCCC" cx="2200" cy="-410" r="200"/>
<circle fill="#E2E2E2" cx="2200" cy="-410" r="100"/>
<circle opacity="0.5" cx="2150" cy="-410" r="10"/>
<circle opacity="0.5" cx="2250" cy="-410" r="10"/>
<path fill="none" stroke="#000000" stroke-width="10" stroke-linecap="round" stroke-linejoin="round" stroke-miterlimit="10" d="
	M2230-340c-15.6,15.6-40.9,15.6-56.6,0"/>
<path fill="#FFFFFF" d="M2219.4-377.2c-1.3-10.8-5.6-32-19.4-52.8c-13.9,20.8-18.1,42.1-19.4,52.8c-0.4,2.3-0.6,4.7-0.6,7.2
	c0,16.6,9,30,20,30s20-13.4,20-30C2220-372.5,2219.8-374.9,2219.4-377.2z"/>
<rect x="1600" y="-1010" fill="#CCCCCC" width="400" height="400"/>
<g>
	<path fill="#FFFFFF" stroke="#000000" stroke-width="8" stroke-miterlimit="10" d="M2150-430L2150-430c-11,0-20-9-20-20v0
		c0-11,9-20,20-20l0,0c11,0,20,9,20,20v0C2170-439,2161-430,2150-430z"/>
	<circle cx="2150" cy="-450" r="10"/>
</g>
<g>
	<path fill="#FFFFFF" stroke="#000000" stroke-width="8" stroke-miterlimit="10" d="M2250-430L2250-430c-11,0-20-9-20-20v0
		c0-11,9-20,20-20l0,0c11,0,20,9,20,20v0C2270-439,2261-430,2250-430z"/>
	<circle cx="2250" cy="-450" r="10"/>
</g>
<circle fill="#CCCCCC" cx="2600" cy="-410" r="200"/>
<circle fill="#E2E2E2" cx="2600" cy="-410" r="100"/>
<path fill="#FFFFFF" d="M2619.4-400.6c-1.3-6-5.6-17.8-19.4-29.4c-13.9,11.6-18.1,23.4-19.4,29.4c-0.4,1.3-0.6,2.6-0.6,4
	c0,9.2,9,16.7,20,16.7s20-7.5,20-16.7C2620-398,2619.8-399.4,2619.4-400.6z"/>
<circle cx="2600" cy="-330" r="10"/>
<g>
	<circle fill="#CCCCCC" cx="2530" cy="-380" r="40"/>
	<rect x="2522" y="-400" fill="#FFFFFF" width="16" height="16"/>
</g>
<g>
	<circle fill="#CCCCCC" cx="2670" cy="-380" r="40"/>
	<rect x="2662" y="-400" fill="#FFFFFF" width="16" height="16"/>
</g>
<line fill="none" stroke="#000000" stroke-width="10" stroke-linecap="round" stroke-linejoin="round" stroke-miterlimit="10" x1="2520" y1="-470" x2="2570" y2="-460"/>
<line fill="none" stroke="#000000" stroke-width="10" stroke-linecap="round" stroke-linejoin="round" stroke-miterlimit="10" x1="2680" y1="-470" x2="2630" y2="-460"/>
<path fill="none" stroke="#000000" stroke-width="20" stroke-linecap="square" stroke-miterlimit="10" d="M2123.5-507.4
	c15.1-16.1,40.4-16.9,56.5-1.8"/>
<path fill="none" stroke="#000000" stroke-width="20" stroke-linecap="square" stroke-miterlimit="10" d="M2220-507.4
	c15.1-16.1,40.4-16.9,56.5-1.8"/>
<path fill="none" stroke="#000000" stroke-width="10" stroke-linecap="round" stroke-linejoin="round" stroke-miterlimit="10" d="
	M2630,160c-15.6,15.6-40.9,15.6-56.6,0"/>
<path opacity="0.3" fill="#4D4D4D" d="M1203-410c0-11.8-1-23.4-3-34.7v69.3C1202-386.6,1203-398.2,1203-410z"/>
<circle fill="#CCCCCC" cx="1000" cy="-410" r="200"/>
<circle fill="#CCCCCC" cx="1004" cy="89" r="200"/>
<circle fill="#E2E2E2" cx="1000" cy="-410" r="100"/>
<g>
	<path fill="#4D4D4D" d="M323.6-600.8c0-4.2-0.2-8.4-0.5-12.5c-98.1,7.5-176.2,86-183.2,184.2c3.8,0.3,7.7,0.4,11.6,0.4
		C246.6-428.7,323.6-505.7,323.6-600.8z"/>
	<path fill="#4D4D4D" d="M338.5-613.8c-5,0-9.9,0.2-14.8,0.5c0,1.8-0.1,3.6-0.1,5.4c0,114.8,93.1,207.9,207.9,207.9
		c1.8,0,3.6,0,5.4-0.1c0.4-4.9,0.5-9.8,0.5-14.8C537.5-524.8,448.4-613.8,338.5-613.8z"/>
</g>
<circle fill="#FFFFFF" cx="955" cy="-465" r="35"/>
<path d="M955-500c-19.3,0-35,15.7-35,35c0,19.3,15.7,35,35,35s35-15.7,35-35C990-484.3,974.3-500,955-500z M955-437
	c-15.5,0-28-12.5-28-28c0-15.5,12.5-28,28-28s28,12.5,28,28C983-449.5,970.5-437,955-437z"/>
<circle fill="#FFFFFF" cx="1045" cy="-465" r="35"/>
<path d="M1045-500c-19.3,0-35,15.7-35,35c0,19.3,15.7,35,35,35s35-15.7,35-35C1080-484.3,1064.3-500,1045-500z M1045-437
	c-15.5,0-28-12.5-28-28c0-15.5,12.5-28,28-28s28,12.5,28,28C1073-449.5,1060.5-437,1045-437z"/>
<circle cx="955" cy="-465" r="15"/>
<circle opacity="0.5" cx="950" cy="-390" r="10"/>
<circle opacity="0.5" cx="1050" cy="-390" r="10"/>
<circle cx="1045" cy="-465" r="15"/>
<polyline fill="none" stroke="#000000" stroke-width="10" stroke-linecap="round" stroke-linejoin="round" stroke-miterlimit="10" points="
	970,-320 1000,-340 1030,-320 "/>
<polygon fill="#FFFFFF" points="1000,-340 980,-360 990,-370 1000,-430 1010,-370 1020,-360 "/>
<line fill="none" stroke="#000000" stroke-width="20" stroke-linecap="square" stroke-miterlimit="10" x1="900" y1="-510" x2="1100" y2="-510"/>
<line fill="none" stroke="#000000" stroke-width="20" stroke-linecap="square" stroke-miterlimit="10" x1="3300" y1="-10" x2="3500" y2="-10"/>
<circle opacity="0.5" cx="2950" cy="110" r="10"/>
<circle opacity="0.5" cx="3050" cy="110" r="10"/>
<polygon fill="#FFFFFF" points="2200,160 2180,140 2190,130 2200,70 2210,130 2220,140 "/>
<circle fill="#FFFFFF" cx="1755" cy="35" r="35"/>
<path d="M1755,0c-19.3,0-35,15.7-35,35c0,19.3,15.7,35,35,35s35-15.7,35-35C1790,15.7,1774.3,0,1755,0z M1755,63
	c-15.5,0-28-12.5-28-28c0-15.5,12.5-28,28-28s28,12.5,28,28C1783,50.5,1770.5,63,1755,63z"/>
<circle fill="#FFFFFF" cx="1845" cy="35" r="35"/>
<path d="M1845,0c-19.3,0-35,15.7-35,35c0,19.3,15.7,35,35,35s35-15.7,35-35C1880,15.7,1864.3,0,1845,0z M1845,63
	c-15.5,0-28-12.5-28-28c0-15.5,12.5-28,28-28s28,12.5,28,28C1873,50.5,1860.5,63,1845,63z"/>
<circle cx="1755" cy="35" r="15"/>
<circle cx="1845" cy="35" r="15"/>
<g>
	
		<line fill="none" stroke="#000000" stroke-width="20" stroke-linecap="square" stroke-miterlimit="10" x1="1320" y1="-500" x2="1390" y2="-480"/>
	
		<line fill="none" stroke="#000000" stroke-width="20" stroke-linecap="square" stroke-miterlimit="10" x1="1480" y1="-500" x2="1410" y2="-480"/>
</g>
<circle fill="#E2E2E2" cx="1404" cy="89" r="100"/>
<path fill="#CCCCCC" d="M800,90c0-1.2,0-2.3,0-3.5v7C800,92.3,800,91.2,800,90z"/>
<path fill="none" d="M651.3-103.4c-0.8-3.8-1.3-7.7-1.3-11.6c0,3.8-0.4,7.5-1.1,11C649.7-103.8,650.5-103.6,651.3-103.4z"/>
<path d="M648.9-104c-15.6-3.9-32-6-48.9-6c-50.7,0-97,18.9-132.3,50H595C621.5-60,643.7-79,648.9-104z"/>
<path d="M705-60h27.3c-22.9-20.2-50.5-35.3-81-43.4C656.6-78.6,678.7-60,705-60z"/>
<path d="M250-330H150c-27.6,0-50,22.4-50,50v10v20v30h40v40l-10,10h50v-10v-40h40v40v10h50l-10-10v-40h40v-30v-20v-10
	C300-307.6,277.6-330,250-330z"/>
<path d="M236.4-116.4h-72.8c-20.1,0-36.4,16.3-36.4,36.4v7.3v14.5v21.8h29.1v29.1L149.1,0h36.4v-7.3v-29.1h29.1v29.1V0h36.4
	l-7.3-7.3v-29.1h29.1v-21.8v-14.5V-80C272.8-100.1,256.5-116.4,236.4-116.4z"/>
<ellipse cx="200" cy="20" rx="70" ry="20"/>
</svg>
