<?xml version="1.0" encoding="utf-8"?>
<!-- Generator: Adobe Illustrator 18.0.0, SVG Export Plug-In . SVG Version: 6.00 Build 0)  -->
<!DOCTYPE svg PUBLIC "-//W3C//DTD SVG 1.1//EN" "http://www.w3.org/Graphics/SVG/1.1/DTD/svg11.dtd">
<svg version="1.1" id="Layer_1" xmlns="http://www.w3.org/2000/svg" xmlns:xlink="http://www.w3.org/1999/xlink" x="0px" y="0px"
	 viewBox="0 0 400 400" enable-background="new 0 0 400 400" xml:space="preserve">
<path fill="#4D4D4D" d="M-600-2700c-110.5,0-200,89.5-200,200v100v100v0.3h200v-0.3c-36.4,0-70.6-9.7-100-26.8v-1.8V-2500
	c0-30.7,13.9-58.2,35.7-76.6c10.5-4,20.2-9.8,28.7-16.9c11.1-4.2,23.1-6.6,35.7-6.6v-70V-2700c0.5,0,1,0,1.5,0c0.5,0,1,0,1.5,0H-600
	z"/>
<circle fill="#CCCCCC" cx="200" cy="-1900" r="200"/>
<circle fill="#E2E2E2" cx="200" cy="-1900" r="100"/>
<circle fill="#CCCCCC" cx="-200" cy="-1900" r="200"/>
<circle fill="#E2E2E2" cx="-200" cy="-1900" r="100"/>
<linearGradient id="SVGID_1_" gradientUnits="userSpaceOnUse" x1="-600" y1="-2190" x2="-600" y2="-2280">
	<stop  offset="0" style="stop-color:#FFFFFF"/>
	<stop  offset="1" style="stop-color:#CCCCCC"/>
</linearGradient>
<polygon fill="url(#SVGID_1_)" points="-600,-2190 -620,-2210 -610,-2220 -600,-2280 -590,-2220 -580,-2210 "/>
<circle opacity="0.5" cx="-255" cy="-1885" r="15"/>
<circle opacity="0.5" cx="-145" cy="-1885" r="15"/>
<polygon fill="#FFFFFF" points="-200,-1830 -240,-1850 -220,-1870 -200,-1910 -180,-1870 -160,-1850 "/>
<line fill="none" stroke="#000000" stroke-width="10" stroke-linecap="round" stroke-linejoin="round" stroke-miterlimit="10" x1="-220" y1="-1820" x2="-180" y2="-1820"/>
<circle opacity="0.5" cx="150" cy="-1900" r="10"/>
<circle opacity="0.5" cx="250" cy="-1900" r="10"/>
<path fill="none" stroke="#000000" stroke-width="10" stroke-linecap="round" stroke-linejoin="round" stroke-miterlimit="10" d="
	M-223.4-1948.3c-15.6-15.6-40.9-15.6-56.6,0"/>
<path fill="none" stroke="#000000" stroke-width="10" stroke-linecap="round" stroke-linejoin="round" stroke-miterlimit="10" d="
	M230-1818.3c-15.6-15.6-40.9-15.6-56.6,0"/>
<path fill="none" stroke="#000000" stroke-width="10" stroke-linecap="round" stroke-linejoin="round" stroke-miterlimit="10" d="
	M-120-1948.3c-15.6-15.6-40.9-15.6-56.6,0"/>
<path fill="#FFFFFF" d="M229.1-1867.2c-2-10.8-8.3-32-29.1-52.8c-20.8,20.8-27.2,42.1-29.1,52.8c-0.6,2.3-0.9,4.7-0.9,7.2
	c0,16.6,13.4,30,30,30s30-13.4,30-30C230-1862.5,229.7-1864.9,229.1-1867.2z"/>
<path fill="#FFFFFF" d="M229.1-1867.2c-2-10.8-8.3-32-29.1-52.8c-20.8,20.8-27.2,42.1-29.1,52.8c-0.6,2.3-0.9,4.7-0.9,7.2
	c0,16.6,13.4,30,30,30s30-13.4,30-30C230-1862.5,229.7-1864.9,229.1-1867.2z"/>
<line fill="none" stroke="#000000" stroke-width="8" stroke-miterlimit="10" x1="0" y1="-1950" x2="400" y2="-1950"/>
<g>
	<g>
		<path fill="#FFFFFF" d="M135-1924c-11.6,0-21-9.4-21-21s9.4-21,21-21h30c11.6,0,21,9.4,21,21s-9.4,21-21,21H135z"/>
		<path d="M165-1962c9.4,0,17,7.6,17,17c0,9.4-7.6,17-17,17h-30c-9.4,0-17-7.6-17-17c0-9.4,7.6-17,17-17H165 M165-1970h-30
			c-13.8,0-25,11.2-25,25l0,0c0,13.8,11.2,25,25,25h30c13.8,0,25-11.2,25-25l0,0C190-1958.8,178.8-1970,165-1970L165-1970z"/>
	</g>
	<g>
		<path fill="#FFFFFF" d="M235-1924c-11.6,0-21-9.4-21-21s9.4-21,21-21h30c11.6,0,21,9.4,21,21s-9.4,21-21,21H235z"/>
		<path d="M265-1962c9.4,0,17,7.6,17,17c0,9.4-7.6,17-17,17h-30c-9.4,0-17-7.6-17-17c0-9.4,7.6-17,17-17H265 M265-1970h-30
			c-13.8,0-25,11.2-25,25l0,0c0,13.8,11.2,25,25,25h30c13.8,0,25-11.2,25-25l0,0C290-1958.8,278.8-1970,265-1970L265-1970z"/>
	</g>
</g>
<line fill="none" stroke="#000000" stroke-width="8" stroke-miterlimit="10" x1="0" y1="-650" x2="400" y2="-650"/>
<g>
	<g>
		<path fill="#FFFFFF" d="M135-624c-11.6,0-21-9.4-21-21s9.4-21,21-21h30c11.6,0,21,9.4,21,21s-9.4,21-21,21H135z"/>
		<path d="M165-662c9.4,0,17,7.6,17,17s-7.6,17-17,17h-30c-9.4,0-17-7.6-17-17s7.6-17,17-17H165 M165-670h-30c-13.8,0-25,11.2-25,25
			l0,0c0,13.8,11.2,25,25,25h30c13.8,0,25-11.2,25-25l0,0C190-658.8,178.8-670,165-670L165-670z"/>
	</g>
	<g>
		<path fill="#FFFFFF" d="M235-624c-11.6,0-21-9.4-21-21s9.4-21,21-21h30c11.6,0,21,9.4,21,21s-9.4,21-21,21H235z"/>
		<path d="M265-662c9.4,0,17,7.6,17,17s-7.6,17-17,17h-30c-9.4,0-17-7.6-17-17s7.6-17,17-17H265 M265-670h-30c-13.8,0-25,11.2-25,25
			l0,0c0,13.8,11.2,25,25,25h30c13.8,0,25-11.2,25-25l0,0C290-658.8,278.8-670,265-670L265-670z"/>
	</g>
</g>
<circle fill="#CCCCCC" cx="600" cy="-1900" r="200"/>
<circle fill="#E2E2E2" cx="600" cy="-1900" r="100"/>
<circle opacity="0.5" cx="550" cy="-1900" r="10"/>
<circle opacity="0.5" cx="650" cy="-1900" r="10"/>
<path fill="none" stroke="#000000" stroke-width="10" stroke-linecap="round" stroke-linejoin="round" stroke-miterlimit="10" d="
	M630-1830c-15.6,15.6-40.9,15.6-56.6,0"/>
<path fill="#FFFFFF" d="M619.4-1867.2c-1.3-10.8-5.6-32-19.4-52.8c-13.9,20.8-18.1,42.1-19.4,52.8c-0.4,2.3-0.6,4.7-0.6,7.2
	c0,16.6,9,30,20,30s20-13.4,20-30C620-1862.5,619.8-1864.9,619.4-1867.2z"/>
<rect x="-60" y="-2990" fill="#CCCCCC" width="400" height="400"/>
<g>
	<path fill="#FFFFFF" stroke="#000000" stroke-width="8" stroke-miterlimit="10" d="M550-1920L550-1920c-11,0-20-9-20-20l0,0
		c0-11,9-20,20-20l0,0c11,0,20,9,20,20l0,0C570-1929,561-1920,550-1920z"/>
	<circle cx="550" cy="-1940" r="10"/>
</g>
<g>
	<path fill="#FFFFFF" stroke="#000000" stroke-width="8" stroke-miterlimit="10" d="M650-1920L650-1920c-11,0-20-9-20-20l0,0
		c0-11,9-20,20-20l0,0c11,0,20,9,20,20l0,0C670-1929,661-1920,650-1920z"/>
	<circle cx="650" cy="-1940" r="10"/>
</g>
<circle fill="#CCCCCC" cx="1000" cy="-1900" r="200"/>
<circle fill="#E2E2E2" cx="1000" cy="-1900" r="100"/>
<path fill="#FFFFFF" d="M1019.4-1890.6c-1.3-6-5.6-17.8-19.4-29.4c-13.9,11.6-18.1,23.4-19.4,29.4c-0.4,1.3-0.6,2.6-0.6,4
	c0,9.2,9,16.7,20,16.7s20-7.5,20-16.7C1020-1888,1019.8-1889.4,1019.4-1890.6z"/>
<circle cx="1000" cy="-1820" r="10"/>
<g>
	<circle fill="#CCCCCC" cx="930" cy="-1870" r="40"/>
	<rect x="922" y="-1890" fill="#FFFFFF" width="16" height="16"/>
</g>
<g>
	<circle fill="#CCCCCC" cx="1070" cy="-1870" r="40"/>
	<rect x="1062" y="-1890" fill="#FFFFFF" width="16" height="16"/>
</g>
<line fill="none" stroke="#000000" stroke-width="10" stroke-linecap="round" stroke-linejoin="round" stroke-miterlimit="10" x1="920" y1="-1960" x2="970" y2="-1950"/>
<line fill="none" stroke="#000000" stroke-width="10" stroke-linecap="round" stroke-linejoin="round" stroke-miterlimit="10" x1="1080" y1="-1960" x2="1030" y2="-1950"/>
<line fill="none" stroke="#000000" stroke-width="10" stroke-linecap="round" stroke-linejoin="round" stroke-miterlimit="10" x1="120" y1="140" x2="170" y2="150"/>
<line fill="none" stroke="#000000" stroke-width="10" stroke-linecap="round" stroke-linejoin="round" stroke-miterlimit="10" x1="280" y1="140" x2="230" y2="150"/>
<path fill="none" stroke="#000000" stroke-width="20" stroke-linecap="square" stroke-miterlimit="10" d="M523.5-1997.4
	c15.1-16.1,40.4-16.9,56.5-1.8"/>
<path fill="none" stroke="#000000" stroke-width="20" stroke-linecap="square" stroke-miterlimit="10" d="M620-1997.4
	c15.1-16.1,40.4-16.9,56.5-1.8"/>
<g>
	<path fill="#FFFFFF" stroke="#000000" stroke-width="8" stroke-miterlimit="10" d="M150-220L150-220c-11,0-20-9-20-20v0
		c0-11,9-20,20-20h0c11,0,20,9,20,20v0C170-229,161-220,150-220z"/>
	<circle cx="150" cy="-240" r="10"/>
</g>
<g>
	<path fill="#FFFFFF" stroke="#000000" stroke-width="8" stroke-miterlimit="10" d="M250-220L250-220c-11,0-20-9-20-20v0
		c0-11,9-20,20-20h0c11,0,20,9,20,20v0C270-229,261-220,250-220z"/>
	<circle cx="250" cy="-240" r="10"/>
</g>
<path fill="none" stroke="#000000" stroke-width="10" stroke-linecap="round" stroke-linejoin="round" stroke-miterlimit="10" d="
	M1030-1330c-15.6,15.6-40.9,15.6-56.6,0"/>
<path opacity="0.3" fill="#4D4D4D" d="M-397-1900c0-11.8-1-23.4-3-34.7v69.3C-398-1876.6-397-1888.2-397-1900z"/>
<circle fill="#CCCCCC" cx="-600" cy="-1900" r="200"/>
<circle fill="#CCCCCC" cx="-596" cy="-1401" r="200"/>
<circle fill="#E2E2E2" cx="-600" cy="-1900" r="100"/>
<g>
	<path fill="#4D4D4D" d="M-1276.4-2090.8c0-4.2-0.2-8.4-0.5-12.5c-98.1,7.5-176.2,86-183.2,184.2c3.8,0.3,7.7,0.4,11.6,0.4
		C-1353.4-1918.7-1276.4-1995.7-1276.4-2090.8z"/>
	<path fill="#4D4D4D" d="M-1261.5-2103.8c-5,0-9.9,0.2-14.8,0.5c0,1.8-0.1,3.6-0.1,5.4c0,114.8,93.1,207.9,207.9,207.9
		c1.8,0,3.6,0,5.4-0.1c0.4-4.9,0.5-9.8,0.5-14.8C-1062.5-2014.8-1151.6-2103.8-1261.5-2103.8z"/>
</g>
<circle fill="#FFFFFF" cx="-645" cy="-1955" r="35"/>
<path d="M-645-1990c-19.3,0-35,15.7-35,35s15.7,35,35,35s35-15.7,35-35S-625.7-1990-645-1990z M-645-1927c-15.5,0-28-12.5-28-28
	s12.5-28,28-28s28,12.5,28,28S-629.5-1927-645-1927z"/>
<circle fill="#FFFFFF" cx="-555" cy="-1955" r="35"/>
<path d="M-555-1990c-19.3,0-35,15.7-35,35s15.7,35,35,35s35-15.7,35-35S-535.7-1990-555-1990z M-555-1927c-15.5,0-28-12.5-28-28
	s12.5-28,28-28s28,12.5,28,28S-539.5-1927-555-1927z"/>
<circle cx="-645" cy="-1955" r="15"/>
<circle opacity="0.5" cx="-650" cy="-1880" r="10"/>
<circle opacity="0.5" cx="-550" cy="-1880" r="10"/>
<circle cx="-555" cy="-1955" r="15"/>
<polyline fill="none" stroke="#000000" stroke-width="10" stroke-linecap="round" stroke-linejoin="round" stroke-miterlimit="10" points="
	-630,-1810 -600,-1830 -570,-1810 "/>
<polygon fill="#FFFFFF" points="-600,-1830 -620,-1850 -610,-1860 -600,-1920 -590,-1860 -580,-1850 "/>
<line fill="none" stroke="#000000" stroke-width="20" stroke-linecap="square" stroke-miterlimit="10" x1="-700" y1="-2000" x2="-500" y2="-2000"/>
<path fill="#B5B5B5" d="M0-2350c-3.4,0-6.8,0.3-10,1v-1h-390c-27.6,0-50,22.4-50,50s22.4,50,50,50h390v-1c3.2,0.7,6.6,1,10,1
	c27.6,0,50-22.4,50-50S27.6-2350,0-2350z"/>
<line fill="none" stroke="#000000" stroke-width="20" stroke-linecap="square" stroke-miterlimit="10" x1="1700" y1="-1500" x2="1900" y2="-1500"/>
<circle opacity="0.5" cx="1350" cy="-1380" r="10"/>
<circle opacity="0.5" cx="1450" cy="-1380" r="10"/>
<polygon fill="#FFFFFF" points="600,-1330 580,-1350 590,-1360 600,-1420 610,-1360 620,-1350 "/>
<circle fill="#FFFFFF" cx="155" cy="-1455" r="35"/>
<path d="M155-1490c-19.3,0-35,15.7-35,35s15.7,35,35,35s35-15.7,35-35S174.3-1490,155-1490z M155-1427c-15.5,0-28-12.5-28-28
	s12.5-28,28-28s28,12.5,28,28S170.5-1427,155-1427z"/>
<circle fill="#FFFFFF" cx="245" cy="-1455" r="35"/>
<path d="M245-1490c-19.3,0-35,15.7-35,35s15.7,35,35,35s35-15.7,35-35S264.3-1490,245-1490z M245-1427c-15.5,0-28-12.5-28-28
	s12.5-28,28-28s28,12.5,28,28S260.5-1427,245-1427z"/>
<circle cx="155" cy="-1455" r="15"/>
<circle cx="245" cy="-1455" r="15"/>
<g>
	
		<line fill="none" stroke="#000000" stroke-width="20" stroke-linecap="square" stroke-miterlimit="10" x1="-280" y1="-1990" x2="-210" y2="-1970"/>
	
		<line fill="none" stroke="#000000" stroke-width="20" stroke-linecap="square" stroke-miterlimit="10" x1="-120" y1="-1990" x2="-190" y2="-1970"/>
</g>
<path fill="none" stroke="#000000" stroke-width="10" stroke-linecap="round" stroke-linejoin="round" stroke-miterlimit="10" d="
	M176.6-1048.3c-15.6-15.6-40.9-15.6-56.6,0"/>
<path fill="none" stroke="#000000" stroke-width="10" stroke-linecap="round" stroke-linejoin="round" stroke-miterlimit="10" d="
	M280-1048.3c-15.6-15.6-40.9-15.6-56.6,0"/>
<circle fill="#E2E2E2" cx="-196" cy="-1401" r="100"/>
<path fill="#CCCCCC" d="M-800-1400c0-1.2,0-2.3,0-3.5v7C-800-1397.7-800-1398.8-800-1400z"/>
<path fill="none" d="M-948.7-1593.4c-0.8-3.8-1.3-7.7-1.3-11.6c0,3.8-0.4,7.5-1.1,11C-950.3-1593.8-949.5-1593.6-948.7-1593.4z"/>
<path d="M-951.1-1594c-15.6-3.9-32-6-48.9-6c-50.7,0-97,18.9-132.3,50h127.3C-978.5-1550-956.3-1569-951.1-1594z"/>
<path d="M-895-1550h27.3c-22.9-20.2-50.5-35.3-81-43.4C-943.4-1568.6-921.3-1550-895-1550z"/>
<path d="M-1350-1820h-100c-27.6,0-50,22.4-50,50v10v20v30h40v40l-10,10h50v-10v-40h40v40v10h50l-10-10v-40h40v-30v-20v-10
	C-1300-1797.6-1322.4-1820-1350-1820z"/>
<path d="M-1363.6-1606.4h-72.8c-20.1,0-36.4,16.3-36.4,36.4v7.3v14.6v21.8h29.1v29.1l-7.3,7.3h36.4v-7.3v-29.1h29.1v29.1v7.3h36.4
	l-7.3-7.3v-29.1h29.1v-21.8v-14.6v-7.3C-1327.2-1590.1-1343.5-1606.4-1363.6-1606.4z"/>
<ellipse cx="-1400" cy="-1470" rx="70" ry="20"/>
</svg>
