<?xml version="1.0" encoding="utf-8"?>
<!-- Generator: Adobe Illustrator 18.0.0, SVG Export Plug-In . SVG Version: 6.00 Build 0)  -->
<!DOCTYPE svg PUBLIC "-//W3C//DTD SVG 1.1//EN" "http://www.w3.org/Graphics/SVG/1.1/DTD/svg11.dtd">
<svg version="1.1" id="Layer_1" xmlns="http://www.w3.org/2000/svg" xmlns:xlink="http://www.w3.org/1999/xlink" x="0px" y="0px"
	 viewBox="0 0 400 400" enable-background="new 0 0 400 400" xml:space="preserve">
<path fill="#CCCCCC" d="M400,200c0-1.2,0-2.3,0-3.5v7C400,202.3,400,201.2,400,200z"/>
<path fill="#CCCCCC" d="M0,200c0,1.2,0,2.3,0,3.5v-7C0,197.7,0,198.8,0,200z"/>
<path fill="none" d="M251.3,6.6C250.4,2.9,250-1,250-5c0,3.8-0.4,7.5-1.1,11C249.7,6.2,250.5,6.4,251.3,6.6z"/>
<path d="M248.9,6c-15.6-3.9-32-6-48.9-6c-50.7,0-97,18.9-132.3,50H195C221.5,50,243.7,31,248.9,6z"/>
<path d="M305,50h27.3c-22.9-20.2-50.5-35.3-81-43.4C256.6,31.4,278.7,50,305,50z"/>
</svg>
