<?xml version="1.0" encoding="utf-8"?>
<!-- Generator: Adobe Illustrator 18.0.0, SVG Export Plug-In . SVG Version: 6.00 Build 0)  -->
<!DOCTYPE svg PUBLIC "-//W3C//DTD SVG 1.1//EN" "http://www.w3.org/Graphics/SVG/1.1/DTD/svg11.dtd">
<svg version="1.1" id="Layer_1" xmlns="http://www.w3.org/2000/svg" xmlns:xlink="http://www.w3.org/1999/xlink" x="0px" y="0px"
	 viewBox="0 0 400 2000" enable-background="new 0 0 400 2000" xml:space="preserve">
<line fill="none" stroke="#000000" stroke-width="8" stroke-miterlimit="10" x1="0" y1="950" x2="400" y2="950"/>
<g>
	<g>
		<path fill="#FFFFFF" d="M135,976c-11.6,0-21-9.4-21-21s9.4-21,21-21h30c11.6,0,21,9.4,21,21s-9.4,21-21,21H135z"/>
		<path d="M165,938c9.4,0,17,7.6,17,17s-7.6,17-17,17h-30c-9.4,0-17-7.6-17-17s7.6-17,17-17H165 M165,930h-30c-13.8,0-25,11.2-25,25
			l0,0c0,13.8,11.2,25,25,25h30c13.8,0,25-11.2,25-25l0,0C190,941.2,178.8,930,165,930L165,930z"/>
	</g>
	<g>
		<path fill="#FFFFFF" d="M235,976c-11.6,0-21-9.4-21-21s9.4-21,21-21h30c11.6,0,21,9.4,21,21s-9.4,21-21,21H235z"/>
		<path d="M265,938c9.4,0,17,7.6,17,17s-7.6,17-17,17h-30c-9.4,0-17-7.6-17-17s7.6-17,17-17H265 M265,930h-30c-13.8,0-25,11.2-25,25
			l0,0c0,13.8,11.2,25,25,25h30c13.8,0,25-11.2,25-25l0,0C290,941.2,278.8,930,265,930L265,930z"/>
	</g>
</g>
<line fill="none" stroke="#000000" stroke-width="10" stroke-linecap="round" stroke-linejoin="round" stroke-miterlimit="10" x1="120" y1="1740" x2="170" y2="1750"/>
<line fill="none" stroke="#000000" stroke-width="10" stroke-linecap="round" stroke-linejoin="round" stroke-miterlimit="10" x1="280" y1="1740" x2="230" y2="1750"/>
<g>
	<path fill="#FFFFFF" stroke="#000000" stroke-width="8" stroke-miterlimit="10" d="M150,1380L150,1380c-11,0-20-9-20-20l0,0
		c0-11,9-20,20-20h0c11,0,20,9,20,20l0,0C170,1371,161,1380,150,1380z"/>
	<circle cx="150" cy="1360" r="10"/>
</g>
<g>
	<path fill="#FFFFFF" stroke="#000000" stroke-width="8" stroke-miterlimit="10" d="M250,1380L250,1380c-11,0-20-9-20-20l0,0
		c0-11,9-20,20-20h0c11,0,20,9,20,20l0,0C270,1371,261,1380,250,1380z"/>
	<circle cx="250" cy="1360" r="10"/>
</g>
<circle fill="#FFFFFF" cx="155" cy="145" r="35"/>
<path d="M155,110c-19.3,0-35,15.7-35,35c0,19.3,15.7,35,35,35s35-15.7,35-35C190,125.7,174.3,110,155,110z M155,173
	c-15.5,0-28-12.5-28-28c0-15.5,12.5-28,28-28s28,12.5,28,28C183,160.5,170.5,173,155,173z"/>
<circle fill="#FFFFFF" cx="245" cy="145" r="35"/>
<path d="M245,110c-19.3,0-35,15.7-35,35c0,19.3,15.7,35,35,35s35-15.7,35-35C280,125.7,264.3,110,245,110z M245,173
	c-15.5,0-28-12.5-28-28c0-15.5,12.5-28,28-28s28,12.5,28,28C273,160.5,260.5,173,245,173z"/>
<circle cx="155" cy="145" r="15"/>
<circle cx="245" cy="145" r="15"/>
<path fill="none" stroke="#000000" stroke-width="10" stroke-linecap="round" stroke-linejoin="round" stroke-miterlimit="10" d="
	M176.6,551.7c-15.6-15.6-40.9-15.6-56.6,0"/>
<path fill="none" stroke="#000000" stroke-width="10" stroke-linecap="round" stroke-linejoin="round" stroke-miterlimit="10" d="
	M280,551.7c-15.6-15.6-40.9-15.6-56.6,0"/>
</svg>
